<svg width="27" height="33" viewBox="0 0 27 33" fill="none" xmlns="http://www.w3.org/2000/svg">
<g filter="url(#filter0_d)">
<path d="M9.24803 15.7439C7.75973 15.7439 6.54883 14.5329 6.54883 13.0447C6.54883 12.7283 6.80664 12.4705 7.12303 12.4705C7.43943 12.4705 7.69723 12.7283 7.69723 13.0447C7.69723 13.9001 8.39448 14.5974 9.24998 14.5974C10.1055 14.5974 10.8027 13.9002 10.8027 13.0447C10.8027 12.7283 11.0605 12.4705 11.3769 12.4705C11.6933 12.4705 11.9511 12.7283 11.9511 13.0447C11.9472 14.533 10.7363 15.7439 9.24803 15.7439Z" fill="#4AF6CD" stroke="#4AF6CD" stroke-width="0.5"/>
<path d="M13.5 15.7439C12.0117 15.7439 10.8008 14.5329 10.8008 13.0447C10.8008 12.7283 11.0587 12.4705 11.375 12.4705C11.6914 12.4705 11.9492 12.7283 11.9492 13.0447C11.9492 13.9001 12.6465 14.5974 13.502 14.5974C14.3574 14.5974 15.0547 13.9002 15.0547 13.0447C15.0547 12.7283 15.3126 12.4705 15.6289 12.4705C15.9453 12.4705 16.2031 12.7283 16.2031 13.0447C16.1992 14.533 14.9883 15.7439 13.5 15.7439Z" fill="#4AF6CD" stroke="#4AF6CD" stroke-width="0.5"/>
<path d="M17.752 15.7439C16.2637 15.7439 15.0528 14.5329 15.0528 13.0447C15.0528 12.7283 15.3106 12.4705 15.627 12.4705C15.9434 12.4705 16.2012 12.7283 16.2012 13.0447C16.2012 13.9001 16.8984 14.5974 17.7539 14.5974C18.6094 14.5974 19.3067 13.9002 19.3067 13.0447C19.3067 12.7283 19.5645 12.4705 19.8809 12.4705C20.1973 12.4705 20.4551 12.7283 20.4551 13.0447C20.4512 14.533 19.2402 15.7439 17.752 15.7439Z" fill="#4AF6CD" stroke="#4AF6CD" stroke-width="0.5"/>
<path fill-rule="evenodd" clip-rule="evenodd" d="M4.422 15.0685C4.422 20.0742 8.494 24.1465 13.5 24.1465L13.5002 24.1466C18.506 24.1466 22.5783 20.0746 22.5802 15.0686C22.5802 8.23659 14.2367 0.795042 13.8812 0.480587C13.6722 0.295042 13.3578 0.289182 13.141 0.464962C12.7835 0.751962 4.422 7.59196 4.422 15.0685ZM13.4841 1.67769C13.4842 1.67761 13.4843 1.67754 13.4844 1.67746H13.4839C13.484 1.67754 13.484 1.67761 13.4841 1.67769ZM13.4841 1.67769C11.8646 3.09799 5.56837 9.00179 5.56837 15.068C5.56837 19.441 9.12502 22.9975 13.4979 22.9975C17.8707 22.9975 21.4274 19.4408 21.4274 15.068C21.4293 9.52524 15.09 3.1916 13.4841 1.67769Z" fill="#4AF6CD"/>
<path d="M13.5 24.1465L13.6125 23.9232L13.5594 23.8965H13.5V24.1465ZM13.5002 24.1466L13.3878 24.3699L13.4408 24.3966H13.5002V24.1466ZM22.5802 15.0686L22.8302 15.0687V15.0686H22.5802ZM13.8812 0.480587L13.7153 0.667543L13.7156 0.667836L13.8812 0.480587ZM13.141 0.464962L13.2975 0.659916L13.2984 0.659151L13.141 0.464962ZM13.4844 1.67746L13.6487 1.86586L14.1513 1.42746H13.4844V1.67746ZM13.4839 1.67746V1.42746H12.8553L13.3122 1.85917L13.4839 1.67746ZM21.4274 15.068L21.1774 15.0679V15.068H21.4274ZM13.5 23.8965C8.63207 23.8965 4.672 19.9361 4.672 15.0685H4.172C4.172 20.2123 8.35592 24.3965 13.5 24.3965V23.8965ZM13.6127 23.9233L13.6125 23.9232L13.3875 24.3697L13.3878 24.3699L13.6127 23.9233ZM22.3302 15.0685C22.3283 19.9365 18.368 23.8966 13.5002 23.8966V24.3966C18.6441 24.3966 22.8282 20.2127 22.8302 15.0687L22.3302 15.0685ZM13.7156 0.667836C13.8881 0.820431 16.0498 2.74757 18.1663 5.48348C20.2911 8.23003 22.3302 11.7411 22.3302 15.0686H22.8302C22.8302 11.5641 20.6976 7.93837 18.5618 5.17754C16.4177 2.40606 14.2299 0.455199 14.0469 0.293338L13.7156 0.667836ZM13.2984 0.659151C13.4209 0.559889 13.5984 0.563816 13.7153 0.667543L14.0472 0.293632C13.7461 0.0262691 13.2947 0.0184753 12.9835 0.270774L13.2984 0.659151ZM4.672 15.0685C4.672 11.4168 6.71832 7.89379 8.84298 5.22641C10.9621 2.56601 13.1263 0.797364 13.2975 0.659913L12.9845 0.270011C12.7982 0.419561 10.6029 2.21441 8.45189 4.91489C6.30642 7.60839 4.172 11.2436 4.172 15.0685H4.672ZM13.32 1.48906L13.3198 1.48929L13.6484 1.86609L13.6487 1.86586L13.32 1.48906ZM13.4839 1.92746H13.4844V1.42746H13.4839V1.92746ZM13.6558 1.49598C13.6558 1.49598 13.6558 1.49598 13.6558 1.49598C13.6558 1.49598 13.6558 1.49598 13.6558 1.49598C13.6558 1.49598 13.6558 1.49598 13.6558 1.49598C13.6558 1.49598 13.6558 1.49598 13.6558 1.49598C13.6558 1.49598 13.6558 1.49598 13.6558 1.49598C13.6558 1.49598 13.6558 1.49598 13.6558 1.49598C13.6558 1.49598 13.6558 1.49598 13.6558 1.49598C13.6558 1.49598 13.6558 1.49598 13.6558 1.49598C13.6558 1.49598 13.6558 1.49598 13.6558 1.49598C13.6558 1.49598 13.6558 1.49598 13.6558 1.49598C13.6558 1.49598 13.6558 1.49598 13.6558 1.49598C13.6558 1.49598 13.6558 1.49598 13.6558 1.49598C13.6558 1.49598 13.6558 1.49598 13.6558 1.49598C13.6558 1.49598 13.6558 1.49598 13.6558 1.49597C13.6558 1.49597 13.6558 1.49597 13.6558 1.49597C13.6558 1.49597 13.6558 1.49597 13.6558 1.49597C13.6558 1.49597 13.6558 1.49597 13.6558 1.49597C13.6558 1.49597 13.6558 1.49597 13.6558 1.49597C13.6558 1.49597 13.6558 1.49597 13.6558 1.49597C13.6558 1.49597 13.6558 1.49597 13.6558 1.49597C13.6558 1.49597 13.6558 1.49597 13.6558 1.49597C13.6558 1.49597 13.6558 1.49597 13.6558 1.49597C13.6558 1.49597 13.6558 1.49597 13.6558 1.49597C13.6558 1.49597 13.6558 1.49597 13.6558 1.49597C13.6558 1.49597 13.6558 1.49597 13.6558 1.49597C13.6558 1.49597 13.6558 1.49597 13.6558 1.49597C13.6558 1.49597 13.6558 1.49597 13.6558 1.49597C13.6558 1.49597 13.6558 1.49597 13.6558 1.49597C13.6558 1.49597 13.6558 1.49597 13.6558 1.49597C13.6558 1.49597 13.6558 1.49597 13.6558 1.49597C13.6558 1.49597 13.6558 1.49597 13.6558 1.49597C13.6558 1.49597 13.6558 1.49597 13.6558 1.49597C13.6558 1.49597 13.6558 1.49597 13.6558 1.49597C13.6558 1.49597 13.6558 1.49597 13.6558 1.49597C13.6558 1.49597 13.6558 1.49597 13.6558 1.49597C13.6558 1.49597 13.6558 1.49597 13.6558 1.49597C13.6558 1.49597 13.6558 1.49596 13.6558 1.49596C13.6558 1.49596 13.6558 1.49596 13.6558 1.49596C13.6558 1.49596 13.6558 1.49596 13.6558 1.49596C13.6558 1.49596 13.6558 1.49596 13.6558 1.49596C13.6558 1.49596 13.6558 1.49596 13.6558 1.49596C13.6558 1.49596 13.6558 1.49596 13.6558 1.49596C13.6558 1.49596 13.6558 1.49596 13.6558 1.49596C13.6558 1.49596 13.6558 1.49596 13.6558 1.49596C13.6558 1.49596 13.6558 1.49596 13.6558 1.49596C13.6558 1.49596 13.6558 1.49596 13.6558 1.49596C13.6558 1.49596 13.6558 1.49596 13.6558 1.49596C13.6558 1.49596 13.6558 1.49596 13.6558 1.49596C13.6558 1.49596 13.6558 1.49596 13.6558 1.49596C13.6558 1.49596 13.6558 1.49596 13.6558 1.49596C13.6558 1.49596 13.6558 1.49596 13.6558 1.49596C13.6558 1.49596 13.6558 1.49596 13.6558 1.49596C13.6558 1.49596 13.6558 1.49596 13.6558 1.49596C13.6558 1.49596 13.6558 1.49596 13.6558 1.49596C13.6558 1.49596 13.6558 1.49596 13.6558 1.49596C13.6558 1.49596 13.6558 1.49596 13.6558 1.49596C13.6558 1.49596 13.6558 1.49596 13.6558 1.49596C13.6558 1.49596 13.6558 1.49596 13.6558 1.49596C13.6558 1.49596 13.6558 1.49596 13.6558 1.49595C13.6558 1.49595 13.6558 1.49595 13.6558 1.49595C13.6558 1.49595 13.6558 1.49595 13.6558 1.49595C13.6558 1.49595 13.6558 1.49595 13.6558 1.49595C13.6558 1.49595 13.6558 1.49595 13.6558 1.49595C13.6558 1.49595 13.6558 1.49595 13.6558 1.49595C13.6558 1.49595 13.6558 1.49595 13.6558 1.49595C13.6558 1.49595 13.6558 1.49595 13.6558 1.49595C13.6558 1.49595 13.6558 1.49595 13.6558 1.49595C13.6558 1.49595 13.6558 1.49595 13.6558 1.49595C13.6558 1.49595 13.6558 1.49595 13.6558 1.49595C13.6558 1.49595 13.6558 1.49595 13.6558 1.49595C13.6558 1.49595 13.6558 1.49595 13.6558 1.49595C13.6558 1.49595 13.6558 1.49595 13.6558 1.49595C13.6558 1.49595 13.6558 1.49595 13.6558 1.49595C13.6558 1.49595 13.6558 1.49595 13.6558 1.49595C13.6558 1.49595 13.6558 1.49595 13.6558 1.49595C13.6558 1.49595 13.6558 1.49595 13.6558 1.49595C13.6558 1.49595 13.6558 1.49595 13.6558 1.49595C13.6558 1.49595 13.6558 1.49595 13.6558 1.49595C13.6558 1.49595 13.6558 1.49595 13.6558 1.49595C13.6558 1.49595 13.6558 1.49595 13.6558 1.49595C13.6558 1.49595 13.6558 1.49595 13.6558 1.49595C13.6558 1.49595 13.6558 1.49594 13.6558 1.49594C13.6558 1.49594 13.6558 1.49594 13.6558 1.49594C13.6558 1.49594 13.6558 1.49594 13.6558 1.49594C13.6558 1.49594 13.6558 1.49594 13.6558 1.49594C13.6558 1.49594 13.6558 1.49594 13.6558 1.49594C13.6558 1.49594 13.6558 1.49594 13.6558 1.49594C13.6558 1.49594 13.6558 1.49594 13.6558 1.49594C13.6558 1.49594 13.6558 1.49594 13.6558 1.49594C13.6558 1.49594 13.6558 1.49594 13.6558 1.49594C13.6558 1.49594 13.6558 1.49594 13.6558 1.49594C13.6558 1.49594 13.6558 1.49594 13.6558 1.49594C13.6558 1.49594 13.6558 1.49594 13.6558 1.49594C13.6558 1.49594 13.6558 1.49594 13.6558 1.49594C13.6558 1.49594 13.6558 1.49594 13.6558 1.49594C13.6558 1.49594 13.6558 1.49594 13.6558 1.49594C13.6558 1.49594 13.6558 1.49594 13.6558 1.49594C13.6558 1.49594 13.6558 1.49594 13.6558 1.49594C13.6558 1.49594 13.6558 1.49594 13.6558 1.49594C13.6558 1.49594 13.6558 1.49594 13.6558 1.49594C13.6558 1.49594 13.6558 1.49594 13.6558 1.49594C13.6558 1.49594 13.6558 1.49594 13.6558 1.49594C13.6558 1.49594 13.6558 1.49594 13.6558 1.49594C13.6558 1.49594 13.6558 1.49594 13.6558 1.49593C13.6558 1.49593 13.6558 1.49593 13.6558 1.49593C13.6558 1.49593 13.6558 1.49593 13.6558 1.49593C13.6558 1.49593 13.6558 1.49593 13.6558 1.49593C13.6558 1.49593 13.6558 1.49593 13.6558 1.49593C13.6558 1.49593 13.6558 1.49593 13.6558 1.49593C13.6558 1.49593 13.6558 1.49593 13.6558 1.49593C13.6558 1.49593 13.6558 1.49593 13.6558 1.49593C13.6558 1.49593 13.6558 1.49593 13.6558 1.49593C13.6558 1.49593 13.6558 1.49593 13.6558 1.49593C13.6558 1.49593 13.6558 1.49593 13.6558 1.49593C13.6558 1.49593 13.6558 1.49593 13.6558 1.49593C13.6558 1.49593 13.6558 1.49593 13.6558 1.49593C13.6558 1.49593 13.6558 1.49593 13.6558 1.49593C13.6558 1.49593 13.6558 1.49593 13.6558 1.49593C13.6558 1.49593 13.6558 1.49593 13.6558 1.49593C13.6558 1.49593 13.6558 1.49593 13.6558 1.49593C13.6558 1.49593 13.6558 1.49593 13.6558 1.49593C13.6558 1.49593 13.6558 1.49593 13.6558 1.49593C13.6558 1.49593 13.6558 1.49593 13.6558 1.49593C13.6558 1.49593 13.6558 1.49593 13.6558 1.49593C13.6558 1.49593 13.6558 1.49593 13.6558 1.49593C13.6558 1.49593 13.6558 1.49593 13.6558 1.49593C13.6558 1.49593 13.6558 1.49592 13.6558 1.49592C13.6558 1.49592 13.6558 1.49592 13.6558 1.49592C13.6558 1.49592 13.6558 1.49592 13.6558 1.49592C13.6558 1.49592 13.6558 1.49592 13.6558 1.49592C13.6558 1.49592 13.6558 1.49592 13.6558 1.49592C13.6558 1.49592 13.6558 1.49592 13.6558 1.49592C13.6558 1.49592 13.6558 1.49592 13.6558 1.49592C13.6558 1.49592 13.6558 1.49592 13.6558 1.49592C13.6558 1.49592 13.6558 1.49592 13.6558 1.49592C13.6558 1.49592 13.6558 1.49592 13.6558 1.49592C13.6558 1.49592 13.6558 1.49592 13.6558 1.49592C13.6558 1.49592 13.6558 1.49592 13.6558 1.49592C13.6558 1.49592 13.6558 1.49592 13.6558 1.49592C13.6558 1.49592 13.6558 1.49592 13.6558 1.49592C13.6558 1.49592 13.6558 1.49592 13.6558 1.49592C13.6558 1.49592 13.6557 1.49592 13.6557 1.49592C13.6557 1.49592 13.6557 1.49592 13.6557 1.49592C13.6557 1.49592 13.6557 1.49592 13.6557 1.49592C13.6557 1.49592 13.6557 1.49592 13.6557 1.49592C13.6557 1.49592 13.6557 1.49592 13.6557 1.49592C13.6557 1.49592 13.6557 1.49592 13.6557 1.49592C13.6557 1.49592 13.6557 1.49592 13.6557 1.49592C13.6557 1.49592 13.6557 1.49592 13.6557 1.49592C13.6557 1.49591 13.6557 1.49591 13.6557 1.49591C13.6557 1.49591 13.6557 1.49591 13.6557 1.49591C13.6557 1.49591 13.6557 1.49591 13.6557 1.49591C13.6557 1.49591 13.6557 1.49591 13.6557 1.49591C13.6557 1.49591 13.6557 1.49591 13.6557 1.49591C13.6557 1.49591 13.6557 1.49591 13.6557 1.49591C13.6557 1.49591 13.6557 1.49591 13.6557 1.49591C13.6557 1.49591 13.6557 1.49591 13.6557 1.49591C13.6557 1.49591 13.6557 1.49591 13.6557 1.49591C13.6557 1.49591 13.6557 1.49591 13.6557 1.49591C13.6557 1.49591 13.6557 1.49591 13.6557 1.49591C13.6557 1.49591 13.6557 1.49591 13.6557 1.49591C13.6557 1.49591 13.6557 1.49591 13.6557 1.49591C13.6557 1.49591 13.6557 1.49591 13.6557 1.49591C13.6557 1.49591 13.6557 1.49591 13.6557 1.49591C13.6557 1.49591 13.6557 1.49591 13.6557 1.49591C13.6557 1.49591 13.6557 1.49591 13.6557 1.49591C13.6557 1.49591 13.6557 1.49591 13.6557 1.49591C13.6557 1.49591 13.6557 1.49591 13.6557 1.49591C13.6557 1.49591 13.6557 1.49591 13.6557 1.49591C13.6557 1.49591 13.6557 1.49591 13.6557 1.49591C13.6557 1.49591 13.6557 1.49591 13.6557 1.49591C13.6557 1.49591 13.6557 1.49591 13.6557 1.4959C13.6557 1.4959 13.6557 1.4959 13.6557 1.4959C13.6557 1.4959 13.6557 1.4959 13.6557 1.4959C13.6557 1.4959 13.6557 1.4959 13.6557 1.4959C13.6557 1.4959 13.6557 1.4959 13.6557 1.4959C13.6557 1.4959 13.6557 1.4959 13.6557 1.4959C13.6557 1.4959 13.6557 1.4959 13.6557 1.4959C13.6557 1.4959 13.6557 1.4959 13.6557 1.4959C13.6557 1.4959 13.6557 1.4959 13.6557 1.4959C13.6557 1.4959 13.6557 1.4959 13.6557 1.4959C13.6557 1.4959 13.6557 1.4959 13.6557 1.4959C13.6557 1.4959 13.6557 1.4959 13.6557 1.4959C13.6557 1.4959 13.6557 1.4959 13.6557 1.4959C13.6557 1.4959 13.6557 1.4959 13.6557 1.4959C13.6557 1.4959 13.6557 1.4959 13.6557 1.4959C13.6557 1.4959 13.6557 1.4959 13.6557 1.4959C13.6557 1.4959 13.6557 1.4959 13.6557 1.4959C13.6557 1.4959 13.6557 1.4959 13.6557 1.4959C13.6557 1.4959 13.6557 1.4959 13.6557 1.4959C13.6557 1.4959 13.6557 1.4959 13.6557 1.4959C13.6557 1.4959 13.6557 1.4959 13.6557 1.4959C13.6557 1.4959 13.6557 1.4959 13.6557 1.4959C13.6557 1.4959 13.6557 1.4959 13.6557 1.4959C13.6557 1.49589 13.6557 1.49589 13.6557 1.49589C13.6557 1.49589 13.6557 1.49589 13.6557 1.49589C13.6557 1.49589 13.6557 1.49589 13.6557 1.49589C13.6557 1.49589 13.6557 1.49589 13.6557 1.49589C13.6557 1.49589 13.6557 1.49589 13.6557 1.49589C13.6557 1.49589 13.6557 1.49589 13.6557 1.49589C13.6557 1.49589 13.6557 1.49589 13.6557 1.49589C13.6557 1.49589 13.6557 1.49589 13.6557 1.49589C13.6557 1.49589 13.6557 1.49589 13.6557 1.49589C13.6557 1.49589 13.6557 1.49589 13.6557 1.49589C13.6557 1.49589 13.6557 1.49589 13.6557 1.49589C13.6557 1.49589 13.6557 1.49589 13.6557 1.49589C13.6557 1.49589 13.6557 1.49589 13.6557 1.49589C13.6557 1.49589 13.6557 1.49589 13.6557 1.49589C13.6557 1.49589 13.6557 1.49589 13.6557 1.49589C13.6557 1.49589 13.6557 1.49589 13.6557 1.49589C13.6557 1.49589 13.6557 1.49589 13.6557 1.49589C13.6557 1.49589 13.6557 1.49589 13.6557 1.49589C13.6557 1.49589 13.6557 1.49589 13.6557 1.49589C13.6557 1.49589 13.6557 1.49589 13.6557 1.49589C13.6557 1.49589 13.6557 1.49589 13.6557 1.49589C13.6557 1.49589 13.6557 1.49589 13.6557 1.49589C13.6557 1.49589 13.6557 1.49589 13.6557 1.49588C13.6557 1.49588 13.6557 1.49588 13.6557 1.49588C13.6557 1.49588 13.6557 1.49588 13.6557 1.49588C13.6557 1.49588 13.6557 1.49588 13.6557 1.49588C13.6557 1.49588 13.6557 1.49588 13.6557 1.49588C13.6557 1.49588 13.6557 1.49588 13.6557 1.49588C13.6557 1.49588 13.6557 1.49588 13.6557 1.49588C13.6557 1.49588 13.6557 1.49588 13.6557 1.49588C13.6557 1.49588 13.6557 1.49588 13.6557 1.49588C13.6557 1.49588 13.6557 1.49588 13.6557 1.49588C13.6557 1.49588 13.6557 1.49588 13.6557 1.49588C13.6557 1.49588 13.6557 1.49588 13.6557 1.49588C13.6557 1.49588 13.6557 1.49588 13.6557 1.49588C13.6557 1.49588 13.6557 1.49588 13.6557 1.49588C13.6557 1.49588 13.6557 1.49588 13.6557 1.49588C13.6557 1.49588 13.6557 1.49588 13.6557 1.49588C13.6557 1.49588 13.6557 1.49588 13.6557 1.49588C13.6557 1.49588 13.6557 1.49588 13.6557 1.49588C13.6557 1.49588 13.6557 1.49588 13.6557 1.49588C13.6557 1.49588 13.6557 1.49588 13.6557 1.49588C13.6557 1.49588 13.6557 1.49588 13.6557 1.49588C13.6557 1.49588 13.6557 1.49588 13.6557 1.49588C13.6557 1.49588 13.6557 1.49588 13.6557 1.49588C13.6557 1.49588 13.6557 1.49587 13.6557 1.49587C13.6557 1.49587 13.6557 1.49587 13.6557 1.49587C13.6557 1.49587 13.6557 1.49587 13.6557 1.49587C13.6557 1.49587 13.6557 1.49587 13.6557 1.49587C13.6557 1.49587 13.6557 1.49587 13.6557 1.49587C13.6557 1.49587 13.6557 1.49587 13.6557 1.49587C13.6557 1.49587 13.6557 1.49587 13.6557 1.49587C13.6557 1.49587 13.6557 1.49587 13.6557 1.49587C13.6557 1.49587 13.6557 1.49587 13.6557 1.49587C13.6557 1.49587 13.6557 1.49587 13.6557 1.49587C13.6557 1.49587 13.6557 1.49587 13.6557 1.49587C13.6557 1.49587 13.6557 1.49587 13.6557 1.49587C13.6557 1.49587 13.6557 1.49587 13.6557 1.49587C13.6557 1.49587 13.6557 1.49587 13.6557 1.49587C13.6557 1.49587 13.6557 1.49587 13.6557 1.49587C13.6557 1.49587 13.6557 1.49587 13.6557 1.49587C13.6557 1.49587 13.6557 1.49587 13.6557 1.49587C13.6557 1.49587 13.6557 1.49587 13.6557 1.49587C13.6557 1.49587 13.6557 1.49587 13.6557 1.49587C13.6557 1.49587 13.6557 1.49587 13.6557 1.49587C13.6557 1.49587 13.6557 1.49587 13.6557 1.49587C13.6557 1.49587 13.6557 1.49587 13.6557 1.49587C13.6557 1.49587 13.6557 1.49587 13.6557 1.49586C13.6557 1.49586 13.6557 1.49586 13.6557 1.49586C13.6557 1.49586 13.6557 1.49586 13.6557 1.49586C13.6557 1.49586 13.6557 1.49586 13.6557 1.49586C13.6557 1.49586 13.6557 1.49586 13.6557 1.49586C13.6557 1.49586 13.6557 1.49586 13.6557 1.49586C13.6557 1.49586 13.6557 1.49586 13.6557 1.49586C13.6557 1.49586 13.6557 1.49586 13.6557 1.49586C13.6557 1.49586 13.6557 1.49586 13.6557 1.49586C13.6557 1.49586 13.6557 1.49586 13.6557 1.49586C13.6557 1.49586 13.6557 1.49586 13.6557 1.49586C13.6557 1.49586 13.6557 1.49586 13.6557 1.49586C13.6557 1.49586 13.6557 1.49586 13.6557 1.49586C13.6557 1.49586 13.6557 1.49586 13.6557 1.49586C13.6557 1.49586 13.6557 1.49586 13.6557 1.49586C13.6557 1.49586 13.6557 1.49586 13.6557 1.49586C13.6557 1.49586 13.6557 1.49586 13.6557 1.49586C13.6557 1.49586 13.6557 1.49586 13.6557 1.49586C13.6557 1.49586 13.6557 1.49586 13.6557 1.49586C13.6557 1.49586 13.6557 1.49586 13.6557 1.49586C13.6557 1.49586 13.6557 1.49586 13.6557 1.49586C13.6557 1.49586 13.6557 1.49586 13.6557 1.49586C13.6557 1.49586 13.6557 1.49586 13.6557 1.49586C13.6557 1.49585 13.6557 1.49585 13.6557 1.49585C13.6557 1.49585 13.6557 1.49585 13.6557 1.49585C13.6557 1.49585 13.6557 1.49585 13.6557 1.49585C13.6557 1.49585 13.6557 1.49585 13.6557 1.49585C13.6557 1.49585 13.6557 1.49585 13.6557 1.49585C13.6557 1.49585 13.6557 1.49585 13.6557 1.49585C13.6557 1.49585 13.6557 1.49585 13.6557 1.49585C13.6557 1.49585 13.6557 1.49585 13.6557 1.49585C13.6557 1.49585 13.6557 1.49585 13.6557 1.49585C13.6557 1.49585 13.6557 1.49585 13.6557 1.49585C13.6557 1.49585 13.6557 1.49585 13.6557 1.49585C13.6557 1.49585 13.6557 1.49585 13.6557 1.49585C13.6557 1.49585 13.6557 1.49585 13.6557 1.49585C13.6557 1.49585 13.6557 1.49585 13.6557 1.49585C13.6557 1.49585 13.6557 1.49585 13.6557 1.49585C13.6557 1.49585 13.6557 1.49585 13.6557 1.49585C13.6557 1.49585 13.6557 1.49585 13.6557 1.49585C13.6557 1.49585 13.6557 1.49585 13.6557 1.49585C13.6557 1.49585 13.6557 1.49585 13.6557 1.49585C13.6557 1.49585 13.6557 1.49585 13.6557 1.49585C13.6557 1.49585 13.6557 1.49585 13.6557 1.49585C13.6557 1.49585 13.6557 1.49585 13.6557 1.49585C13.6557 1.49585 13.6557 1.49585 13.6557 1.49584C13.6557 1.49584 13.6557 1.49584 13.6557 1.49584C13.6557 1.49584 13.6557 1.49584 13.6557 1.49584C13.6557 1.49584 13.6557 1.49584 13.6557 1.49584C13.6557 1.49584 13.6557 1.49584 13.6557 1.49584C13.6557 1.49584 13.6557 1.49584 13.6557 1.49584C13.6557 1.49584 13.6557 1.49584 13.6557 1.49584C13.6557 1.49584 13.6557 1.49584 13.6557 1.49584C13.6557 1.49584 13.6557 1.49584 13.6557 1.49584C13.6557 1.49584 13.6557 1.49584 13.6557 1.49584C13.6557 1.49584 13.6557 1.49584 13.6557 1.49584C13.6557 1.49584 13.6557 1.49584 13.6557 1.49584C13.6557 1.49584 13.6557 1.49584 13.6557 1.49584C13.6557 1.49584 13.6557 1.49584 13.6557 1.49584C13.6557 1.49584 13.6557 1.49584 13.6557 1.49584C13.6557 1.49584 13.6557 1.49584 13.6557 1.49584C13.6557 1.49584 13.6557 1.49584 13.6557 1.49584C13.6557 1.49584 13.6557 1.49584 13.6557 1.49584C13.6557 1.49584 13.6557 1.49584 13.6557 1.49584C13.6557 1.49584 13.6557 1.49584 13.6557 1.49584C13.6557 1.49584 13.6557 1.49584 13.6557 1.49584C13.6557 1.49584 13.6557 1.49584 13.6557 1.49584C13.6557 1.49584 13.6557 1.49584 13.6557 1.49584C13.6557 1.49584 13.6557 1.49583 13.6557 1.49583C13.6557 1.49583 13.6557 1.49583 13.6557 1.49583C13.6557 1.49583 13.6557 1.49583 13.6557 1.49583C13.6557 1.49583 13.6557 1.49583 13.6557 1.49583C13.6557 1.49583 13.6557 1.49583 13.6557 1.49583C13.6557 1.49583 13.6557 1.49583 13.6557 1.49583C13.6557 1.49583 13.6557 1.49583 13.6557 1.49583C13.6557 1.49583 13.6557 1.49583 13.6557 1.49583C13.6557 1.49583 13.6557 1.49583 13.6557 1.49583C13.6557 1.49583 13.6557 1.49583 13.6557 1.49583C13.6557 1.49583 13.6557 1.49583 13.6557 1.49583C13.6557 1.49583 13.6557 1.49583 13.6557 1.49583C13.6557 1.49583 13.6557 1.49583 13.6557 1.49583C13.6557 1.49583 13.6557 1.49583 13.6557 1.49583C13.6557 1.49583 13.6557 1.49583 13.6557 1.49583C13.6557 1.49583 13.6557 1.49583 13.6557 1.49583C13.6557 1.49583 13.6557 1.49583 13.6557 1.49583C13.6557 1.49583 13.6557 1.49583 13.6557 1.49583C13.6557 1.49583 13.6557 1.49583 13.6557 1.49583C13.6557 1.49583 13.6557 1.49583 13.6557 1.49583C13.6557 1.49583 13.6557 1.49583 13.6557 1.49583C13.6557 1.49583 13.6557 1.49583 13.6557 1.49583C13.6557 1.49583 13.6557 1.49583 13.6557 1.49583C13.6557 1.49582 13.6557 1.49582 13.6557 1.49582C13.6557 1.49582 13.6557 1.49582 13.6557 1.49582C13.6557 1.49582 13.6557 1.49582 13.6556 1.49582C13.6556 1.49582 13.6556 1.49582 13.6556 1.49582C13.6556 1.49582 13.6556 1.49582 13.6556 1.49582C13.6556 1.49582 13.6556 1.49582 13.6556 1.49582C13.6556 1.49582 13.6556 1.49582 13.6556 1.49582C13.6556 1.49582 13.6556 1.49582 13.6556 1.49582C13.6556 1.49582 13.6556 1.49582 13.6556 1.49582C13.6556 1.49582 13.6556 1.49582 13.6556 1.49582C13.6556 1.49582 13.6556 1.49582 13.6556 1.49582C13.6556 1.49582 13.6556 1.49582 13.6556 1.49582C13.6556 1.49582 13.6556 1.49582 13.6556 1.49582C13.6556 1.49582 13.6556 1.49582 13.6556 1.49582C13.6556 1.49582 13.6556 1.49582 13.6556 1.49582C13.6556 1.49582 13.6556 1.49582 13.6556 1.49582C13.6556 1.49582 13.6556 1.49582 13.6556 1.49582C13.6556 1.49582 13.6556 1.49582 13.6556 1.49582C13.6556 1.49582 13.6556 1.49582 13.6556 1.49582C13.6556 1.49582 13.6556 1.49582 13.6556 1.49582C13.6556 1.49582 13.6556 1.49582 13.6556 1.49582C13.6556 1.49582 13.6556 1.49582 13.6556 1.49582C13.6556 1.49582 13.6556 1.49581 13.6556 1.49581C13.6556 1.49581 13.6556 1.49581 13.6556 1.49581C13.6556 1.49581 13.6556 1.49581 13.6556 1.49581C13.6556 1.49581 13.6556 1.49581 13.6556 1.49581C13.6556 1.49581 13.6556 1.49581 13.6556 1.49581C13.6556 1.49581 13.6556 1.49581 13.6556 1.49581C13.6556 1.49581 13.6556 1.49581 13.6556 1.49581C13.6556 1.49581 13.6556 1.49581 13.6556 1.49581C13.6556 1.49581 13.6556 1.49581 13.6556 1.49581C13.6556 1.49581 13.6556 1.49581 13.6556 1.49581C13.6556 1.49581 13.6556 1.49581 13.6556 1.49581C13.6556 1.49581 13.6556 1.49581 13.6556 1.49581C13.6556 1.49581 13.6556 1.49581 13.6556 1.49581C13.6556 1.49581 13.6556 1.49581 13.6556 1.49581C13.6556 1.49581 13.6556 1.49581 13.6556 1.49581C13.6556 1.49581 13.6556 1.49581 13.6556 1.49581C13.6556 1.49581 13.6556 1.49581 13.6556 1.49581C13.6556 1.49581 13.6556 1.49581 13.6556 1.49581C13.6556 1.49581 13.6556 1.49581 13.6556 1.49581C13.6556 1.49581 13.6556 1.49581 13.6556 1.49581C13.6556 1.49581 13.6556 1.49581 13.6556 1.49581C13.6556 1.49581 13.6556 1.49581 13.6556 1.49581C13.6556 1.49581 13.6556 1.49581 13.6556 1.49581C13.6556 1.4958 13.6556 1.4958 13.6556 1.4958C13.6556 1.4958 13.6556 1.4958 13.6556 1.4958C13.6556 1.4958 13.6556 1.4958 13.6556 1.4958C13.6556 1.4958 13.6556 1.4958 13.6556 1.4958C13.6556 1.4958 13.6556 1.4958 13.6556 1.4958C13.6556 1.4958 13.6556 1.4958 13.6556 1.4958C13.6556 1.4958 13.6556 1.4958 13.6556 1.4958C13.6556 1.4958 13.6556 1.4958 13.6556 1.4958C13.6556 1.4958 13.6556 1.4958 13.6556 1.4958C13.6556 1.4958 13.6556 1.4958 13.6556 1.4958C13.6556 1.4958 13.6556 1.4958 13.6556 1.4958C13.6556 1.4958 13.6556 1.4958 13.6556 1.4958C13.6556 1.4958 13.6556 1.4958 13.6556 1.4958C13.6556 1.4958 13.6556 1.4958 13.6556 1.4958C13.6556 1.4958 13.6556 1.4958 13.6556 1.4958C13.6556 1.4958 13.6556 1.4958 13.6556 1.4958C13.6556 1.4958 13.6556 1.4958 13.6556 1.4958C13.6556 1.4958 13.6556 1.4958 13.6556 1.4958C13.6556 1.4958 13.6556 1.4958 13.6556 1.4958C13.6556 1.4958 13.6556 1.4958 13.6556 1.4958C13.6556 1.4958 13.6556 1.4958 13.6556 1.4958C13.6556 1.4958 13.6556 1.4958 13.6556 1.4958C13.6556 1.4958 13.6556 1.4958 13.6556 1.49579C13.6556 1.49579 13.6556 1.49579 13.6556 1.49579C13.6556 1.49579 13.6556 1.49579 13.6556 1.49579C13.6556 1.49579 13.6556 1.49579 13.6556 1.49579C13.6556 1.49579 13.6556 1.49579 13.6556 1.49579C13.6556 1.49579 13.6556 1.49579 13.6556 1.49579C13.6556 1.49579 13.6556 1.49579 13.6556 1.49579C13.6556 1.49579 13.6556 1.49579 13.6556 1.49579C13.6556 1.49579 13.6556 1.49579 13.6556 1.49579C13.6556 1.49579 13.6556 1.49579 13.6556 1.49579C13.6556 1.49579 13.6556 1.49579 13.6556 1.49579C13.6556 1.49579 13.6556 1.49579 13.6556 1.49579C13.6556 1.49579 13.6556 1.49579 13.6556 1.49579C13.6556 1.49579 13.6556 1.49579 13.6556 1.49579C13.6556 1.49579 13.6556 1.49579 13.6556 1.49579C13.6556 1.49579 13.6556 1.49579 13.6556 1.49579C13.6556 1.49579 13.6556 1.49579 13.6556 1.49579C13.6556 1.49579 13.6556 1.49579 13.6556 1.49579C13.6556 1.49579 13.6556 1.49579 13.6556 1.49579C13.6556 1.49579 13.6556 1.49579 13.6556 1.49579C13.6556 1.49579 13.6556 1.49579 13.6556 1.49579C13.6556 1.49579 13.6556 1.49579 13.6556 1.49579C13.6556 1.49579 13.6556 1.49579 13.6556 1.49579C13.6556 1.49578 13.6556 1.49578 13.6556 1.49578C13.6556 1.49578 13.6556 1.49578 13.6556 1.49578C13.6556 1.49578 13.6556 1.49578 13.6556 1.49578C13.6556 1.49578 13.6556 1.49578 13.6556 1.49578C13.6556 1.49578 13.6556 1.49578 13.6556 1.49578C13.6556 1.49578 13.6556 1.49578 13.6556 1.49578C13.6556 1.49578 13.6556 1.49578 13.6556 1.49578C13.6556 1.49578 13.6556 1.49578 13.6556 1.49578C13.6556 1.49578 13.6556 1.49578 13.6556 1.49578C13.6556 1.49578 13.6556 1.49578 13.6556 1.49578C13.6556 1.49578 13.6556 1.49578 13.6556 1.49578C13.6556 1.49578 13.6556 1.49578 13.6556 1.49578C13.6556 1.49578 13.6556 1.49578 13.6556 1.49578C13.6556 1.49578 13.6556 1.49578 13.6556 1.49578C13.6556 1.49578 13.6556 1.49578 13.6556 1.49578C13.6556 1.49578 13.6556 1.49578 13.6556 1.49578C13.6556 1.49578 13.6556 1.49578 13.6556 1.49578C13.6556 1.49578 13.6556 1.49578 13.6556 1.49578C13.6556 1.49578 13.6556 1.49578 13.6556 1.49578C13.6556 1.49578 13.6556 1.49578 13.6556 1.49578C13.6556 1.49578 13.6556 1.49578 13.6556 1.49578C13.6556 1.49578 13.6556 1.49578 13.6556 1.49578C13.6556 1.49578 13.6556 1.49578 13.6556 1.49577C13.6556 1.49577 13.6556 1.49577 13.6556 1.49577C13.6556 1.49577 13.6556 1.49577 13.6556 1.49577C13.6556 1.49577 13.6556 1.49577 13.6556 1.49577C13.6556 1.49577 13.6556 1.49577 13.6556 1.49577C13.6556 1.49577 13.6556 1.49577 13.6556 1.49577C13.6556 1.49577 13.6556 1.49577 13.6556 1.49577C13.6556 1.49577 13.6556 1.49577 13.6556 1.49577C13.6556 1.49577 13.6556 1.49577 13.6556 1.49577C13.6556 1.49577 13.6556 1.49577 13.6556 1.49577C13.6556 1.49577 13.6556 1.49577 13.6556 1.49577C13.6556 1.49577 13.6556 1.49577 13.6556 1.49577C13.6556 1.49577 13.6556 1.49577 13.6556 1.49577C13.6556 1.49577 13.6556 1.49577 13.6556 1.49577C13.6556 1.49577 13.6556 1.49577 13.6556 1.49577C13.6556 1.49577 13.6556 1.49577 13.6556 1.49577C13.6556 1.49577 13.6556 1.49577 13.6556 1.49577C13.6556 1.49577 13.6556 1.49577 13.6556 1.49577C13.6556 1.49577 13.6556 1.49577 13.6556 1.49577C13.6556 1.49577 13.6556 1.49577 13.6556 1.49577C13.6556 1.49577 13.6556 1.49577 13.6556 1.49577C13.6556 1.49577 13.6556 1.49577 13.6556 1.49577C13.6556 1.49577 13.6556 1.49577 13.6556 1.49577C13.6556 1.49576 13.6556 1.49576 13.6556 1.49576C13.6556 1.49576 13.6556 1.49576 13.6556 1.49576C13.6556 1.49576 13.6556 1.49576 13.6556 1.49576C13.6556 1.49576 13.6556 1.49576 13.6556 1.49576C13.6556 1.49576 13.6556 1.49576 13.6556 1.49576C13.6556 1.49576 13.6556 1.49576 13.6556 1.49576C13.6556 1.49576 13.6556 1.49576 13.6556 1.49576C13.6556 1.49576 13.6556 1.49576 13.6556 1.49576C13.6556 1.49576 13.6556 1.49576 13.6556 1.49576C13.6556 1.49576 13.6556 1.49576 13.6556 1.49576C13.6556 1.49576 13.6556 1.49576 13.6556 1.49576C13.6556 1.49576 13.6556 1.49576 13.6556 1.49576C13.6556 1.49576 13.6556 1.49576 13.6556 1.49576C13.6556 1.49576 13.6556 1.49576 13.6556 1.49576C13.6556 1.49576 13.6556 1.49576 13.6556 1.49576C13.6556 1.49576 13.6556 1.49576 13.6556 1.49576C13.6556 1.49576 13.6556 1.49576 13.6556 1.49576C13.6556 1.49576 13.6556 1.49576 13.6556 1.49576C13.6556 1.49576 13.6556 1.49576 13.6556 1.49576C13.6556 1.49576 13.6556 1.49576 13.6556 1.49576C13.6556 1.49576 13.6556 1.49576 13.6556 1.49576C13.6556 1.49576 13.6556 1.49576 13.6556 1.49576C13.6556 1.49576 13.6556 1.49576 13.6556 1.49575C13.6556 1.49575 13.6556 1.49575 13.6556 1.49575C13.6556 1.49575 13.6556 1.49575 13.6556 1.49575L13.3122 1.85917C13.3122 1.85917 13.3122 1.85917 13.3122 1.85917C13.3122 1.85917 13.3122 1.85917 13.3122 1.85917C13.3122 1.85917 13.3122 1.85917 13.3122 1.85917C13.3122 1.85917 13.3122 1.85917 13.3122 1.85917C13.3122 1.85917 13.3122 1.85917 13.3122 1.85917C13.3122 1.85917 13.3122 1.85917 13.3122 1.85917C13.3122 1.85917 13.3122 1.85917 13.3122 1.85917C13.3122 1.85917 13.3122 1.85917 13.3122 1.85917C13.3122 1.85917 13.3122 1.85917 13.3122 1.85917C13.3122 1.85917 13.3122 1.85917 13.3122 1.85918C13.3122 1.85918 13.3122 1.85918 13.3122 1.85918C13.3122 1.85918 13.3122 1.85918 13.3122 1.85918C13.3122 1.85918 13.3122 1.85918 13.3122 1.85918C13.3122 1.85918 13.3122 1.85918 13.3122 1.85918C13.3122 1.85918 13.3122 1.85918 13.3122 1.85918C13.3122 1.85918 13.3122 1.85918 13.3122 1.85918C13.3122 1.85918 13.3122 1.85918 13.3122 1.85918C13.3122 1.85918 13.3122 1.85918 13.3122 1.85918C13.3122 1.85918 13.3122 1.85918 13.3122 1.85918C13.3122 1.85918 13.3122 1.85918 13.3122 1.85918C13.3122 1.85918 13.3122 1.85918 13.3122 1.85918C13.3122 1.85918 13.3122 1.85918 13.3122 1.85918C13.3122 1.85918 13.3122 1.85918 13.3122 1.85918C13.3122 1.85918 13.3122 1.85918 13.3122 1.85918C13.3122 1.85918 13.3122 1.85918 13.3122 1.85918C13.3122 1.85918 13.3122 1.85918 13.3122 1.85918C13.3122 1.85918 13.3122 1.85918 13.3122 1.85918C13.3122 1.85918 13.3122 1.85918 13.3122 1.85918C13.3122 1.85918 13.3122 1.85918 13.3122 1.85918C13.3122 1.85918 13.3122 1.85918 13.3122 1.85918C13.3122 1.85918 13.3122 1.85918 13.3122 1.85918C13.3122 1.85918 13.3122 1.85918 13.3122 1.85918C13.3122 1.85918 13.3122 1.85919 13.3122 1.85919C13.3122 1.85919 13.3122 1.85919 13.3122 1.85919C13.3122 1.85919 13.3122 1.85919 13.3122 1.85919C13.3122 1.85919 13.3122 1.85919 13.3122 1.85919C13.3122 1.85919 13.3122 1.85919 13.3122 1.85919C13.3122 1.85919 13.3122 1.85919 13.3122 1.85919C13.3122 1.85919 13.3122 1.85919 13.3122 1.85919C13.3122 1.85919 13.3122 1.85919 13.3122 1.85919C13.3122 1.85919 13.3122 1.85919 13.3122 1.85919C13.3122 1.85919 13.3122 1.85919 13.3122 1.85919C13.3122 1.85919 13.3122 1.85919 13.3122 1.85919C13.3122 1.85919 13.3122 1.85919 13.3122 1.85919C13.3122 1.85919 13.3122 1.85919 13.3122 1.85919C13.3122 1.85919 13.3122 1.85919 13.3122 1.85919C13.3122 1.85919 13.3122 1.85919 13.3122 1.85919C13.3122 1.85919 13.3122 1.85919 13.3122 1.85919C13.3122 1.85919 13.3122 1.85919 13.3122 1.85919C13.3122 1.85919 13.3122 1.85919 13.3122 1.85919C13.3122 1.85919 13.3122 1.85919 13.3122 1.85919C13.3122 1.85919 13.3122 1.85919 13.3122 1.85919C13.3122 1.85919 13.3122 1.85919 13.3122 1.85919C13.3122 1.85919 13.3122 1.85919 13.3122 1.85919C13.3122 1.85919 13.3122 1.85919 13.3122 1.85919C13.3122 1.8592 13.3122 1.8592 13.3122 1.8592C13.3122 1.8592 13.3122 1.8592 13.3122 1.8592C13.3122 1.8592 13.3122 1.8592 13.3122 1.8592C13.3122 1.8592 13.3122 1.8592 13.3122 1.8592C13.3122 1.8592 13.3122 1.8592 13.3122 1.8592C13.3122 1.8592 13.3122 1.8592 13.3122 1.8592C13.3122 1.8592 13.3122 1.8592 13.3122 1.8592C13.3122 1.8592 13.3122 1.8592 13.3122 1.8592C13.3122 1.8592 13.3122 1.8592 13.3122 1.8592C13.3122 1.8592 13.3122 1.8592 13.3122 1.8592C13.3122 1.8592 13.3122 1.8592 13.3122 1.8592C13.3122 1.8592 13.3122 1.8592 13.3122 1.8592C13.3122 1.8592 13.3122 1.8592 13.3122 1.8592C13.3122 1.8592 13.3122 1.8592 13.3122 1.8592C13.3122 1.8592 13.3122 1.8592 13.3122 1.8592C13.3122 1.8592 13.3122 1.8592 13.3122 1.8592C13.3122 1.8592 13.3122 1.8592 13.3122 1.8592C13.3122 1.8592 13.3122 1.8592 13.3122 1.8592C13.3122 1.8592 13.3122 1.8592 13.3122 1.8592C13.3122 1.8592 13.3122 1.8592 13.3122 1.8592C13.3122 1.8592 13.3122 1.8592 13.3122 1.8592C13.3122 1.8592 13.3122 1.8592 13.3122 1.8592C13.3122 1.8592 13.3122 1.85921 13.3122 1.85921C13.3122 1.85921 13.3122 1.85921 13.3122 1.85921C13.3122 1.85921 13.3122 1.85921 13.3122 1.85921C13.3122 1.85921 13.3122 1.85921 13.3122 1.85921C13.3122 1.85921 13.3122 1.85921 13.3122 1.85921C13.3122 1.85921 13.3122 1.85921 13.3122 1.85921C13.3122 1.85921 13.3122 1.85921 13.3122 1.85921C13.3122 1.85921 13.3122 1.85921 13.3122 1.85921C13.3122 1.85921 13.3122 1.85921 13.3122 1.85921C13.3122 1.85921 13.3122 1.85921 13.3122 1.85921C13.3122 1.85921 13.3122 1.85921 13.3122 1.85921C13.3122 1.85921 13.3122 1.85921 13.3122 1.85921C13.3122 1.85921 13.3122 1.85921 13.3122 1.85921C13.3122 1.85921 13.3122 1.85921 13.3122 1.85921C13.3122 1.85921 13.3122 1.85921 13.3122 1.85921C13.3122 1.85921 13.3122 1.85921 13.3122 1.85921C13.3122 1.85921 13.3122 1.85921 13.3122 1.85921C13.3122 1.85921 13.3122 1.85921 13.3122 1.85921C13.3122 1.85921 13.3122 1.85921 13.3122 1.85921C13.3122 1.85921 13.3122 1.85921 13.3122 1.85921C13.3122 1.85921 13.3122 1.85921 13.3122 1.85921C13.3122 1.85921 13.3122 1.85921 13.3122 1.85921C13.3122 1.85921 13.3122 1.85921 13.3122 1.85922C13.3122 1.85922 13.3122 1.85922 13.3122 1.85922C13.3122 1.85922 13.3122 1.85922 13.3122 1.85922C13.3122 1.85922 13.3122 1.85922 13.3122 1.85922C13.3122 1.85922 13.3122 1.85922 13.3122 1.85922C13.3122 1.85922 13.3122 1.85922 13.3122 1.85922C13.3122 1.85922 13.3122 1.85922 13.3122 1.85922C13.3122 1.85922 13.3122 1.85922 13.3122 1.85922C13.3122 1.85922 13.3122 1.85922 13.3122 1.85922C13.3122 1.85922 13.3122 1.85922 13.3122 1.85922C13.3122 1.85922 13.3122 1.85922 13.3122 1.85922C13.3122 1.85922 13.3122 1.85922 13.3122 1.85922C13.3122 1.85922 13.3122 1.85922 13.3122 1.85922C13.3122 1.85922 13.3122 1.85922 13.3122 1.85922C13.3122 1.85922 13.3122 1.85922 13.3122 1.85922C13.3122 1.85922 13.3122 1.85922 13.3122 1.85922C13.3122 1.85922 13.3122 1.85922 13.3122 1.85922C13.3122 1.85922 13.3122 1.85922 13.3122 1.85922C13.3122 1.85922 13.3122 1.85922 13.3122 1.85922C13.3122 1.85922 13.3122 1.85922 13.3122 1.85922C13.3122 1.85922 13.3122 1.85922 13.3122 1.85922C13.3122 1.85922 13.3122 1.85922 13.3122 1.85922C13.3122 1.85922 13.3122 1.85922 13.3122 1.85922C13.3122 1.85922 13.3122 1.85923 13.3122 1.85923C13.3122 1.85923 13.3122 1.85923 13.3122 1.85923C13.3122 1.85923 13.3122 1.85923 13.3122 1.85923C13.3122 1.85923 13.3122 1.85923 13.3122 1.85923C13.3122 1.85923 13.3122 1.85923 13.3122 1.85923C13.3122 1.85923 13.3122 1.85923 13.3122 1.85923C13.3122 1.85923 13.3122 1.85923 13.3122 1.85923C13.3122 1.85923 13.3122 1.85923 13.3122 1.85923C13.3122 1.85923 13.3122 1.85923 13.3122 1.85923C13.3122 1.85923 13.3122 1.85923 13.3122 1.85923C13.3122 1.85923 13.3122 1.85923 13.3122 1.85923C13.3122 1.85923 13.3122 1.85923 13.3122 1.85923C13.3122 1.85923 13.3122 1.85923 13.3122 1.85923C13.3122 1.85923 13.3122 1.85923 13.3122 1.85923C13.3122 1.85923 13.3122 1.85923 13.3122 1.85923C13.3122 1.85923 13.3122 1.85923 13.3122 1.85923C13.3122 1.85923 13.3122 1.85923 13.3122 1.85923C13.3122 1.85923 13.3122 1.85923 13.3122 1.85923C13.3122 1.85923 13.3122 1.85923 13.3122 1.85923C13.3122 1.85923 13.3122 1.85923 13.3122 1.85923C13.3122 1.85923 13.3122 1.85923 13.3122 1.85923C13.3122 1.85923 13.3122 1.85923 13.3122 1.85923C13.3122 1.85923 13.3122 1.85923 13.3122 1.85923C13.3122 1.85924 13.3122 1.85924 13.3122 1.85924C13.3122 1.85924 13.3122 1.85924 13.3122 1.85924C13.3122 1.85924 13.3122 1.85924 13.3122 1.85924C13.3122 1.85924 13.3122 1.85924 13.3122 1.85924C13.3122 1.85924 13.3122 1.85924 13.3122 1.85924C13.3122 1.85924 13.3122 1.85924 13.3122 1.85924C13.3122 1.85924 13.3122 1.85924 13.3122 1.85924C13.3122 1.85924 13.3122 1.85924 13.3122 1.85924C13.3122 1.85924 13.3122 1.85924 13.3122 1.85924C13.3122 1.85924 13.3122 1.85924 13.3122 1.85924C13.3122 1.85924 13.3122 1.85924 13.3122 1.85924C13.3122 1.85924 13.3122 1.85924 13.3122 1.85924C13.3122 1.85924 13.3122 1.85924 13.3122 1.85924C13.3122 1.85924 13.3122 1.85924 13.3122 1.85924C13.3122 1.85924 13.3122 1.85924 13.3122 1.85924C13.3122 1.85924 13.3122 1.85924 13.3122 1.85924C13.3122 1.85924 13.3122 1.85924 13.3122 1.85924C13.3122 1.85924 13.3122 1.85924 13.3122 1.85924C13.3122 1.85924 13.3122 1.85924 13.3122 1.85924C13.3122 1.85924 13.3122 1.85924 13.3122 1.85924C13.3122 1.85924 13.3122 1.85924 13.3122 1.85924C13.3122 1.85924 13.3122 1.85924 13.3122 1.85924C13.3122 1.85924 13.3122 1.85924 13.3122 1.85925C13.3122 1.85925 13.3122 1.85925 13.3122 1.85925C13.3122 1.85925 13.3122 1.85925 13.3122 1.85925C13.3122 1.85925 13.3122 1.85925 13.3122 1.85925C13.3122 1.85925 13.3122 1.85925 13.3122 1.85925C13.3123 1.85925 13.3123 1.85925 13.3123 1.85925C13.3123 1.85925 13.3123 1.85925 13.3123 1.85925C13.3123 1.85925 13.3123 1.85925 13.3123 1.85925C13.3123 1.85925 13.3123 1.85925 13.3123 1.85925C13.3123 1.85925 13.3123 1.85925 13.3123 1.85925C13.3123 1.85925 13.3123 1.85925 13.3123 1.85925C13.3123 1.85925 13.3123 1.85925 13.3123 1.85925C13.3123 1.85925 13.3123 1.85925 13.3123 1.85925C13.3123 1.85925 13.3123 1.85925 13.3123 1.85925C13.3123 1.85925 13.3123 1.85925 13.3123 1.85925C13.3123 1.85925 13.3123 1.85925 13.3123 1.85925C13.3123 1.85925 13.3123 1.85925 13.3123 1.85925C13.3123 1.85925 13.3123 1.85925 13.3123 1.85925C13.3123 1.85925 13.3123 1.85925 13.3123 1.85925C13.3123 1.85925 13.3123 1.85925 13.3123 1.85925C13.3123 1.85925 13.3123 1.85925 13.3123 1.85925C13.3123 1.85925 13.3123 1.85925 13.3123 1.85925C13.3123 1.85925 13.3123 1.85925 13.3123 1.85925C13.3123 1.85926 13.3123 1.85926 13.3123 1.85926C13.3123 1.85926 13.3123 1.85926 13.3123 1.85926C13.3123 1.85926 13.3123 1.85926 13.3123 1.85926C13.3123 1.85926 13.3123 1.85926 13.3123 1.85926C13.3123 1.85926 13.3123 1.85926 13.3123 1.85926C13.3123 1.85926 13.3123 1.85926 13.3123 1.85926C13.3123 1.85926 13.3123 1.85926 13.3123 1.85926C13.3123 1.85926 13.3123 1.85926 13.3123 1.85926C13.3123 1.85926 13.3123 1.85926 13.3123 1.85926C13.3123 1.85926 13.3123 1.85926 13.3123 1.85926C13.3123 1.85926 13.3123 1.85926 13.3123 1.85926C13.3123 1.85926 13.3123 1.85926 13.3123 1.85926C13.3123 1.85926 13.3123 1.85926 13.3123 1.85926C13.3123 1.85926 13.3123 1.85926 13.3123 1.85926C13.3123 1.85926 13.3123 1.85926 13.3123 1.85926C13.3123 1.85926 13.3123 1.85926 13.3123 1.85926C13.3123 1.85926 13.3123 1.85926 13.3123 1.85926C13.3123 1.85926 13.3123 1.85926 13.3123 1.85926C13.3123 1.85926 13.3123 1.85926 13.3123 1.85926C13.3123 1.85926 13.3123 1.85926 13.3123 1.85926C13.3123 1.85926 13.3123 1.85926 13.3123 1.85926C13.3123 1.85926 13.3123 1.85926 13.3123 1.85926C13.3123 1.85926 13.3123 1.85926 13.3123 1.85927C13.3123 1.85927 13.3123 1.85927 13.3123 1.85927C13.3123 1.85927 13.3123 1.85927 13.3123 1.85927C13.3123 1.85927 13.3123 1.85927 13.3123 1.85927C13.3123 1.85927 13.3123 1.85927 13.3123 1.85927C13.3123 1.85927 13.3123 1.85927 13.3123 1.85927C13.3123 1.85927 13.3123 1.85927 13.3123 1.85927C13.3123 1.85927 13.3123 1.85927 13.3123 1.85927C13.3123 1.85927 13.3123 1.85927 13.3123 1.85927C13.3123 1.85927 13.3123 1.85927 13.3123 1.85927C13.3123 1.85927 13.3123 1.85927 13.3123 1.85927C13.3123 1.85927 13.3123 1.85927 13.3123 1.85927C13.3123 1.85927 13.3123 1.85927 13.3123 1.85927C13.3123 1.85927 13.3123 1.85927 13.3123 1.85927C13.3123 1.85927 13.3123 1.85927 13.3123 1.85927C13.3123 1.85927 13.3123 1.85927 13.3123 1.85927C13.3123 1.85927 13.3123 1.85927 13.3123 1.85927C13.3123 1.85927 13.3123 1.85927 13.3123 1.85927C13.3123 1.85927 13.3123 1.85927 13.3123 1.85927C13.3123 1.85927 13.3123 1.85927 13.3123 1.85927C13.3123 1.85927 13.3123 1.85927 13.3123 1.85927C13.3123 1.85927 13.3123 1.85927 13.3123 1.85927C13.3123 1.85927 13.3123 1.85927 13.3123 1.85927C13.3123 1.85927 13.3123 1.85928 13.3123 1.85928C13.3123 1.85928 13.3123 1.85928 13.3123 1.85928C13.3123 1.85928 13.3123 1.85928 13.3123 1.85928C13.3123 1.85928 13.3123 1.85928 13.3123 1.85928C13.3123 1.85928 13.3123 1.85928 13.3123 1.85928C13.3123 1.85928 13.3123 1.85928 13.3123 1.85928C13.3123 1.85928 13.3123 1.85928 13.3123 1.85928C13.3123 1.85928 13.3123 1.85928 13.3123 1.85928C13.3123 1.85928 13.3123 1.85928 13.3123 1.85928C13.3123 1.85928 13.3123 1.85928 13.3123 1.85928C13.3123 1.85928 13.3123 1.85928 13.3123 1.85928C13.3123 1.85928 13.3123 1.85928 13.3123 1.85928C13.3123 1.85928 13.3123 1.85928 13.3123 1.85928C13.3123 1.85928 13.3123 1.85928 13.3123 1.85928C13.3123 1.85928 13.3123 1.85928 13.3123 1.85928C13.3123 1.85928 13.3123 1.85928 13.3123 1.85928C13.3123 1.85928 13.3123 1.85928 13.3123 1.85928C13.3123 1.85928 13.3123 1.85928 13.3123 1.85928C13.3123 1.85928 13.3123 1.85928 13.3123 1.85928C13.3123 1.85928 13.3123 1.85928 13.3123 1.85928C13.3123 1.85928 13.3123 1.85928 13.3123 1.85928C13.3123 1.85928 13.3123 1.85928 13.3123 1.85928C13.3123 1.85928 13.3123 1.85928 13.3123 1.85929C13.3123 1.85929 13.3123 1.85929 13.3123 1.85929C13.3123 1.85929 13.3123 1.85929 13.3123 1.85929C13.3123 1.85929 13.3123 1.85929 13.3123 1.85929C13.3123 1.85929 13.3123 1.85929 13.3123 1.85929C13.3123 1.85929 13.3123 1.85929 13.3123 1.85929C13.3123 1.85929 13.3123 1.85929 13.3123 1.85929C13.3123 1.85929 13.3123 1.85929 13.3123 1.85929C13.3123 1.85929 13.3123 1.85929 13.3123 1.85929C13.3123 1.85929 13.3123 1.85929 13.3123 1.85929C13.3123 1.85929 13.3123 1.85929 13.3123 1.85929C13.3123 1.85929 13.3123 1.85929 13.3123 1.85929C13.3123 1.85929 13.3123 1.85929 13.3123 1.85929C13.3123 1.85929 13.3123 1.85929 13.3123 1.85929C13.3123 1.85929 13.3123 1.85929 13.3123 1.85929C13.3123 1.85929 13.3123 1.85929 13.3123 1.85929C13.3123 1.85929 13.3123 1.85929 13.3123 1.85929C13.3123 1.85929 13.3123 1.85929 13.3123 1.85929C13.3123 1.85929 13.3123 1.85929 13.3123 1.85929C13.3123 1.85929 13.3123 1.85929 13.3123 1.85929C13.3123 1.85929 13.3123 1.85929 13.3123 1.85929C13.3123 1.85929 13.3123 1.85929 13.3123 1.85929C13.3123 1.85929 13.3123 1.85929 13.3123 1.85929C13.3123 1.8593 13.3123 1.8593 13.3123 1.8593C13.3123 1.8593 13.3123 1.8593 13.3123 1.8593C13.3123 1.8593 13.3123 1.8593 13.3123 1.8593C13.3123 1.8593 13.3123 1.8593 13.3123 1.8593C13.3123 1.8593 13.3123 1.8593 13.3123 1.8593C13.3123 1.8593 13.3123 1.8593 13.3123 1.8593C13.3123 1.8593 13.3123 1.8593 13.3123 1.8593C13.3123 1.8593 13.3123 1.8593 13.3123 1.8593C13.3123 1.8593 13.3123 1.8593 13.3123 1.8593C13.3123 1.8593 13.3123 1.8593 13.3123 1.8593C13.3123 1.8593 13.3123 1.8593 13.3123 1.8593C13.3123 1.8593 13.3123 1.8593 13.3123 1.8593C13.3123 1.8593 13.3123 1.8593 13.3123 1.8593C13.3123 1.8593 13.3123 1.8593 13.3123 1.8593C13.3123 1.8593 13.3123 1.8593 13.3123 1.8593C13.3123 1.8593 13.3123 1.8593 13.3123 1.8593C13.3123 1.8593 13.3123 1.8593 13.3123 1.8593C13.3123 1.8593 13.3123 1.8593 13.3123 1.8593C13.3123 1.8593 13.3123 1.8593 13.3123 1.8593C13.3123 1.8593 13.3123 1.8593 13.3123 1.8593C13.3123 1.8593 13.3123 1.8593 13.3123 1.8593C13.3123 1.8593 13.3123 1.8593 13.3123 1.8593C13.3123 1.8593 13.3123 1.8593 13.3123 1.85931C13.3123 1.85931 13.3123 1.85931 13.3123 1.85931C13.3123 1.85931 13.3123 1.85931 13.3123 1.85931C13.3123 1.85931 13.3123 1.85931 13.3123 1.85931C13.3123 1.85931 13.3123 1.85931 13.3123 1.85931C13.3123 1.85931 13.3123 1.85931 13.3123 1.85931C13.3123 1.85931 13.3123 1.85931 13.3123 1.85931C13.3123 1.85931 13.3123 1.85931 13.3123 1.85931C13.3123 1.85931 13.3123 1.85931 13.3123 1.85931C13.3123 1.85931 13.3123 1.85931 13.3123 1.85931C13.3123 1.85931 13.3123 1.85931 13.3123 1.85931C13.3123 1.85931 13.3123 1.85931 13.3123 1.85931C13.3123 1.85931 13.3123 1.85931 13.3123 1.85931C13.3123 1.85931 13.3123 1.85931 13.3123 1.85931C13.3123 1.85931 13.3123 1.85931 13.3123 1.85931C13.3123 1.85931 13.3123 1.85931 13.3123 1.85931C13.3123 1.85931 13.3123 1.85931 13.3123 1.85931C13.3123 1.85931 13.3123 1.85931 13.3123 1.85931C13.3123 1.85931 13.3123 1.85931 13.3123 1.85931C13.3123 1.85931 13.3123 1.85931 13.3123 1.85931C13.3123 1.85931 13.3123 1.85931 13.3123 1.85931C13.3123 1.85931 13.3123 1.85931 13.3123 1.85931C13.3123 1.85931 13.3123 1.85931 13.3123 1.85931C13.3123 1.85931 13.3123 1.85932 13.3123 1.85932C13.3123 1.85932 13.3123 1.85932 13.3123 1.85932C13.3123 1.85932 13.3123 1.85932 13.3123 1.85932C13.3123 1.85932 13.3123 1.85932 13.3123 1.85932C13.3123 1.85932 13.3123 1.85932 13.3123 1.85932C13.3123 1.85932 13.3123 1.85932 13.3123 1.85932C13.3123 1.85932 13.3123 1.85932 13.3123 1.85932C13.3123 1.85932 13.3123 1.85932 13.3123 1.85932C13.3123 1.85932 13.3123 1.85932 13.3123 1.85932C13.3123 1.85932 13.3123 1.85932 13.3123 1.85932C13.3123 1.85932 13.3123 1.85932 13.3123 1.85932C13.3123 1.85932 13.3123 1.85932 13.3123 1.85932C13.3123 1.85932 13.3123 1.85932 13.3123 1.85932C13.3123 1.85932 13.3123 1.85932 13.3123 1.85932C13.3123 1.85932 13.3123 1.85932 13.3123 1.85932C13.3123 1.85932 13.3123 1.85932 13.3123 1.85932C13.3123 1.85932 13.3123 1.85932 13.3123 1.85932C13.3123 1.85932 13.3123 1.85932 13.3123 1.85932C13.3123 1.85932 13.3123 1.85932 13.3123 1.85932C13.3123 1.85932 13.3123 1.85932 13.3123 1.85932C13.3123 1.85932 13.3123 1.85932 13.3123 1.85932C13.3123 1.85932 13.3123 1.85932 13.3123 1.85932C13.3123 1.85932 13.3123 1.85932 13.3123 1.85932C13.3123 1.85933 13.3123 1.85933 13.3123 1.85933C13.3123 1.85933 13.3123 1.85933 13.3123 1.85933C13.3123 1.85933 13.3123 1.85933 13.3123 1.85933C13.3123 1.85933 13.3123 1.85933 13.3123 1.85933C13.3123 1.85933 13.3123 1.85933 13.3123 1.85933C13.3123 1.85933 13.3123 1.85933 13.3123 1.85933C13.3123 1.85933 13.3123 1.85933 13.3123 1.85933C13.3123 1.85933 13.3123 1.85933 13.3123 1.85933C13.3123 1.85933 13.3123 1.85933 13.3123 1.85933C13.3123 1.85933 13.3123 1.85933 13.3123 1.85933C13.3123 1.85933 13.3123 1.85933 13.3123 1.85933C13.3123 1.85933 13.3123 1.85933 13.3123 1.85933C13.3123 1.85933 13.3123 1.85933 13.3123 1.85933C13.3123 1.85933 13.3123 1.85933 13.3123 1.85933C13.3123 1.85933 13.3123 1.85933 13.3123 1.85933C13.3123 1.85933 13.3123 1.85933 13.3123 1.85933C13.3123 1.85933 13.3123 1.85933 13.3123 1.85933C13.3123 1.85933 13.3123 1.85933 13.3123 1.85933C13.3123 1.85933 13.3123 1.85933 13.3123 1.85933C13.3123 1.85933 13.3123 1.85933 13.3123 1.85933C13.3123 1.85933 13.3123 1.85933 13.3123 1.85933C13.3123 1.85933 13.3123 1.85933 13.3123 1.85933C13.3123 1.85933 13.3123 1.85934 13.3123 1.85934C13.3123 1.85934 13.3123 1.85934 13.3123 1.85934C13.3123 1.85934 13.3123 1.85934 13.3123 1.85934C13.3123 1.85934 13.3123 1.85934 13.3123 1.85934C13.3123 1.85934 13.3123 1.85934 13.3123 1.85934C13.3123 1.85934 13.3123 1.85934 13.3123 1.85934C13.3123 1.85934 13.3123 1.85934 13.3123 1.85934C13.3123 1.85934 13.3123 1.85934 13.3123 1.85934C13.3123 1.85934 13.3123 1.85934 13.3123 1.85934C13.3123 1.85934 13.3123 1.85934 13.3123 1.85934C13.3123 1.85934 13.3123 1.85934 13.3123 1.85934C13.3123 1.85934 13.3123 1.85934 13.3123 1.85934C13.3123 1.85934 13.3123 1.85934 13.3123 1.85934C13.3123 1.85934 13.3123 1.85934 13.3123 1.85934C13.3123 1.85934 13.3123 1.85934 13.3123 1.85934C13.3123 1.85934 13.3124 1.85934 13.3124 1.85934C13.3124 1.85934 13.3124 1.85934 13.3124 1.85934C13.3124 1.85934 13.3124 1.85934 13.3124 1.85934C13.3124 1.85934 13.3124 1.85934 13.3124 1.85934C13.3124 1.85934 13.3124 1.85934 13.3124 1.85934C13.3124 1.85934 13.3124 1.85934 13.3124 1.85934C13.3124 1.85934 13.3124 1.85934 13.3124 1.85934C13.3124 1.85934 13.3124 1.85934 13.3124 1.85934C13.3124 1.85935 13.3124 1.85935 13.3124 1.85935C13.3124 1.85935 13.3124 1.85935 13.3124 1.85935C13.3124 1.85935 13.3124 1.85935 13.3124 1.85935C13.3124 1.85935 13.3124 1.85935 13.3124 1.85935C13.3124 1.85935 13.3124 1.85935 13.3124 1.85935C13.3124 1.85935 13.3124 1.85935 13.3124 1.85935C13.3124 1.85935 13.3124 1.85935 13.3124 1.85935C13.3124 1.85935 13.3124 1.85935 13.3124 1.85935C13.3124 1.85935 13.3124 1.85935 13.3124 1.85935C13.3124 1.85935 13.3124 1.85935 13.3124 1.85935C13.3124 1.85935 13.3124 1.85935 13.3124 1.85935C13.3124 1.85935 13.3124 1.85935 13.3124 1.85935C13.3124 1.85935 13.3124 1.85935 13.3124 1.85935C13.3124 1.85935 13.3124 1.85935 13.3124 1.85935C13.3124 1.85935 13.3124 1.85935 13.3124 1.85935C13.3124 1.85935 13.3124 1.85935 13.3124 1.85935C13.3124 1.85935 13.3124 1.85935 13.3124 1.85935C13.3124 1.85935 13.3124 1.85935 13.3124 1.85935C13.3124 1.85935 13.3124 1.85935 13.3124 1.85935C13.3124 1.85935 13.3124 1.85935 13.3124 1.85935C13.3124 1.85935 13.3124 1.85935 13.3124 1.85935C13.3124 1.85935 13.3124 1.85935 13.3124 1.85935C13.3124 1.85935 13.3124 1.85935 13.3124 1.85936C13.3124 1.85936 13.3124 1.85936 13.3124 1.85936C13.3124 1.85936 13.3124 1.85936 13.3124 1.85936C13.3124 1.85936 13.3124 1.85936 13.3124 1.85936C13.3124 1.85936 13.3124 1.85936 13.3124 1.85936C13.3124 1.85936 13.3124 1.85936 13.3124 1.85936C13.3124 1.85936 13.3124 1.85936 13.3124 1.85936C13.3124 1.85936 13.3124 1.85936 13.3124 1.85936C13.3124 1.85936 13.3124 1.85936 13.3124 1.85936C13.3124 1.85936 13.3124 1.85936 13.3124 1.85936C13.3124 1.85936 13.3124 1.85936 13.3124 1.85936C13.3124 1.85936 13.3124 1.85936 13.3124 1.85936C13.3124 1.85936 13.3124 1.85936 13.3124 1.85936C13.3124 1.85936 13.3124 1.85936 13.3124 1.85936C13.3124 1.85936 13.3124 1.85936 13.3124 1.85936C13.3124 1.85936 13.3124 1.85936 13.3124 1.85936C13.3124 1.85936 13.3124 1.85936 13.3124 1.85936C13.3124 1.85936 13.3124 1.85936 13.3124 1.85936C13.3124 1.85936 13.3124 1.85936 13.3124 1.85936C13.3124 1.85936 13.3124 1.85936 13.3124 1.85936C13.3124 1.85936 13.3124 1.85936 13.3124 1.85936C13.3124 1.85936 13.3124 1.85936 13.3124 1.85936C13.3124 1.85936 13.3124 1.85936 13.3124 1.85936C13.3124 1.85937 13.3124 1.85937 13.3124 1.85937C13.3124 1.85937 13.3124 1.85937 13.3124 1.85937C13.3124 1.85937 13.3124 1.85937 13.3124 1.85937C13.3124 1.85937 13.3124 1.85937 13.3124 1.85937C13.3124 1.85937 13.3124 1.85937 13.3124 1.85937C13.3124 1.85937 13.3124 1.85937 13.3124 1.85937C13.3124 1.85937 13.3124 1.85937 13.3124 1.85937C13.3124 1.85937 13.3124 1.85937 13.3124 1.85937C13.3124 1.85937 13.3124 1.85937 13.3124 1.85937C13.3124 1.85937 13.3124 1.85937 13.3124 1.85937C13.3124 1.85937 13.3124 1.85937 13.3124 1.85937C13.3124 1.85937 13.3124 1.85937 13.3124 1.85937C13.3124 1.85937 13.3124 1.85937 13.3124 1.85937C13.3124 1.85937 13.3124 1.85937 13.3124 1.85937C13.3124 1.85937 13.3124 1.85937 13.3124 1.85937C13.3124 1.85937 13.3124 1.85937 13.3124 1.85937C13.3124 1.85937 13.3124 1.85937 13.3124 1.85937C13.3124 1.85937 13.3124 1.85937 13.3124 1.85937C13.3124 1.85937 13.3124 1.85937 13.3124 1.85937C13.3124 1.85937 13.3124 1.85937 13.3124 1.85937C13.3124 1.85937 13.3124 1.85937 13.3124 1.85937C13.3124 1.85937 13.3124 1.85937 13.3124 1.85937C13.3124 1.85937 13.3124 1.85938 13.3124 1.85938C13.3124 1.85938 13.3124 1.85938 13.3124 1.85938C13.3124 1.85938 13.3124 1.85938 13.3124 1.85938C13.3124 1.85938 13.3124 1.85938 13.3124 1.85938C13.3124 1.85938 13.3124 1.85938 13.3124 1.85938C13.3124 1.85938 13.3124 1.85938 13.3124 1.85938C13.3124 1.85938 13.3124 1.85938 13.3124 1.85938C13.3124 1.85938 13.3124 1.85938 13.3124 1.85938C13.3124 1.85938 13.3124 1.85938 13.3124 1.85938C13.3124 1.85938 13.3124 1.85938 13.3124 1.85938C13.3124 1.85938 13.3124 1.85938 13.3124 1.85938C13.3124 1.85938 13.3124 1.85938 13.3124 1.85938C13.3124 1.85938 13.3124 1.85938 13.3124 1.85938C13.3124 1.85938 13.3124 1.85938 13.3124 1.85938C13.3124 1.85938 13.3124 1.85938 13.3124 1.85938C13.3124 1.85938 13.3124 1.85938 13.3124 1.85938C13.3124 1.85938 13.3124 1.85938 13.3124 1.85938C13.3124 1.85938 13.3124 1.85938 13.3124 1.85938C13.3124 1.85938 13.3124 1.85938 13.3124 1.85938C13.3124 1.85938 13.3124 1.85938 13.3124 1.85938C13.3124 1.85938 13.3124 1.85938 13.3124 1.85938C13.3124 1.85938 13.3124 1.85938 13.3124 1.85938C13.3124 1.85938 13.3124 1.85938 13.3124 1.85938C13.3124 1.85939 13.3124 1.85939 13.3124 1.85939C13.3124 1.85939 13.3124 1.85939 13.3124 1.85939C13.3124 1.85939 13.3124 1.85939 13.3124 1.85939C13.3124 1.85939 13.3124 1.85939 13.3124 1.85939C13.3124 1.85939 13.3124 1.85939 13.3124 1.85939C13.3124 1.85939 13.3124 1.85939 13.3124 1.85939C13.3124 1.85939 13.3124 1.85939 13.3124 1.85939C13.3124 1.85939 13.3124 1.85939 13.3124 1.85939C13.3124 1.85939 13.3124 1.85939 13.3124 1.85939C13.3124 1.85939 13.3124 1.85939 13.3124 1.85939C13.3124 1.85939 13.3124 1.85939 13.3124 1.85939C13.3124 1.85939 13.3124 1.85939 13.3124 1.85939C13.3124 1.85939 13.3124 1.85939 13.3124 1.85939C13.3124 1.85939 13.3124 1.85939 13.3124 1.85939C13.3124 1.85939 13.3124 1.85939 13.3124 1.85939C13.3124 1.85939 13.3124 1.85939 13.3124 1.85939C13.3124 1.85939 13.3124 1.85939 13.3124 1.85939C13.3124 1.85939 13.3124 1.85939 13.3124 1.85939C13.3124 1.85939 13.3124 1.85939 13.3124 1.85939C13.3124 1.85939 13.3124 1.85939 13.3124 1.85939C13.3124 1.85939 13.3124 1.85939 13.3124 1.85939C13.3124 1.85939 13.3124 1.85939 13.3124 1.85939C13.3124 1.85939 13.3124 1.85939 13.3124 1.8594C13.3124 1.8594 13.3124 1.8594 13.3124 1.8594C13.3124 1.8594 13.3124 1.8594 13.3124 1.8594C13.3124 1.8594 13.3124 1.8594 13.3124 1.8594C13.3124 1.8594 13.3124 1.8594 13.3124 1.8594C13.3124 1.8594 13.3124 1.8594 13.3124 1.8594C13.3124 1.8594 13.3124 1.8594 13.3124 1.8594L13.6558 1.49598ZM13.3193 1.48973C12.5028 2.20572 10.5091 4.05022 8.71762 6.48236C6.93059 8.90842 5.31837 11.9545 5.31837 15.068H5.81837C5.81837 12.1153 7.35424 9.17634 9.12019 6.77889C10.8817 4.38751 12.8458 2.56996 13.6489 1.86565L13.3193 1.48973ZM5.31837 15.068C5.31837 19.5791 8.98695 23.2475 13.4979 23.2475V22.7475C9.26309 22.7475 5.81837 19.3029 5.81837 15.068H5.31837ZM13.4979 23.2475C18.0088 23.2475 21.6774 19.5789 21.6774 15.068H21.1774C21.1774 19.3027 17.7327 22.7475 13.4979 22.7475V23.2475ZM21.6774 15.0681C21.6784 12.2135 20.0526 9.18936 18.2612 6.71539C16.4628 4.23194 14.464 2.25788 13.6556 1.49578L13.3126 1.8596C14.1101 2.61141 16.0839 4.56112 17.8562 7.00865C19.6354 9.46566 21.1783 12.3797 21.1774 15.0679L21.6774 15.0681Z" fill="#4AF6CD"/>
</g>
<defs>
<filter id="filter0_d" x="0.171997" y="0.0871582" width="26.6583" height="32.3094" filterUnits="userSpaceOnUse" color-interpolation-filters="sRGB">
<feFlood flood-opacity="0" result="BackgroundImageFix"/>
<feColorMatrix in="SourceAlpha" type="matrix" values="0 0 0 0 0 0 0 0 0 0 0 0 0 0 0 0 0 0 127 0"/>
<feOffset dy="4"/>
<feGaussianBlur stdDeviation="2"/>
<feColorMatrix type="matrix" values="0 0 0 0 0 0 0 0 0 0 0 0 0 0 0 0 0 0 0.25 0"/>
<feBlend mode="normal" in2="BackgroundImageFix" result="effect1_dropShadow"/>
<feBlend mode="normal" in="SourceGraphic" in2="effect1_dropShadow" result="shape"/>
</filter>
</defs>
</svg>
